<mxfile host="Electron" modified="2023-12-04T06:34:26.085Z" agent="Mozilla/5.0 (Windows NT 10.0; Win64; x64) AppleWebKit/537.36 (KHTML, like Gecko) draw.io/22.1.2 Chrome/114.0.5735.289 Electron/25.9.4 Safari/537.36" etag="uE0uT-SwDrvXEwGz8Khx" version="22.1.2" type="device">
  <diagram name="Page-1" id="sNYpW4WngiKnaLFyjs2r">
    <mxGraphModel dx="435" dy="515" grid="1" gridSize="10" guides="1" tooltips="1" connect="1" arrows="1" fold="1" page="1" pageScale="1" pageWidth="850" pageHeight="1100" math="0" shadow="0">
      <root>
        <mxCell id="0" />
        <mxCell id="1" parent="0" />
        <mxCell id="kY_FVC5AN6ohZ6w6Z8hk-6" value="" style="edgeStyle=orthogonalEdgeStyle;rounded=0;orthogonalLoop=1;jettySize=auto;html=1;" edge="1" parent="1" source="kY_FVC5AN6ohZ6w6Z8hk-1" target="kY_FVC5AN6ohZ6w6Z8hk-5">
          <mxGeometry relative="1" as="geometry" />
        </mxCell>
        <mxCell id="kY_FVC5AN6ohZ6w6Z8hk-1" value="struct SinhVien{&#xa;    char hoTen[50];&#xa;    int tuoi;&#xa;    char soDienThoai[15];&#xa;    char email[50];&#xa;};" style="shape=parallelogram;perimeter=parallelogramPerimeter;whiteSpace=wrap;html=1;fixedSize=1;" vertex="1" parent="1">
          <mxGeometry x="280" y="20" width="190" height="120" as="geometry" />
        </mxCell>
        <mxCell id="kY_FVC5AN6ohZ6w6Z8hk-8" value="" style="edgeStyle=orthogonalEdgeStyle;rounded=0;orthogonalLoop=1;jettySize=auto;html=1;" edge="1" parent="1" source="kY_FVC5AN6ohZ6w6Z8hk-5" target="kY_FVC5AN6ohZ6w6Z8hk-7">
          <mxGeometry relative="1" as="geometry" />
        </mxCell>
        <mxCell id="kY_FVC5AN6ohZ6w6Z8hk-5" value="struct SinhVien danhSachSinhVien[100];&#xa;int soLuongSinhVien = 0;&#xa;void nhapThongTin(struct SinhVien *sv){&#xa;    printf(&quot;Nhap ho va ten: &quot;);&#xa;    fgets(sv-&gt;hoTen, sizeof(sv-&gt;hoTen), stdin);&#xa;    sv-&gt;hoTen[strcspn(sv-&gt;hoTen, &quot;\n&quot;)] = &#39;\0&#39;;&#xa;    scanf(&quot;%s&quot;,&amp;sv-&gt;hoTen);    &#xa;    printf(&quot;Nhap tuoi: &quot;);&#xa;    scanf(&quot;%d&quot;, &amp;sv-&gt;tuoi);&#xa;    printf(&quot;Nhap so dien thoai: &quot;);&#xa;    fgets(sv-&gt;soDienThoai, sizeof(sv-&gt;soDienThoai), stdin);&#xa;    sv-&gt;soDienThoai[strcspn(sv-&gt;soDienThoai, &quot;\n&quot;)] = &#39;\0&#39;;&#xa;    scanf(&quot;%s&quot;, sv-&gt;soDienThoai);&#xa;    printf(&quot;Nhap email: &quot;);&#xa;    fgets(sv-&gt;email, sizeof(sv-&gt;email), stdin);&#xa;    sv-&gt;email[strcspn(sv-&gt;email, &quot;\n&quot;)] = &#39;\0&#39;;&#xa;    scanf(&quot;%s&quot;, sv-&gt;email);&#xa;}" style="shape=parallelogram;perimeter=parallelogramPerimeter;whiteSpace=wrap;html=1;fixedSize=1;" vertex="1" parent="1">
          <mxGeometry x="180" y="180" width="390" height="280" as="geometry" />
        </mxCell>
        <mxCell id="kY_FVC5AN6ohZ6w6Z8hk-10" value="" style="edgeStyle=orthogonalEdgeStyle;rounded=0;orthogonalLoop=1;jettySize=auto;html=1;" edge="1" parent="1" source="kY_FVC5AN6ohZ6w6Z8hk-7" target="kY_FVC5AN6ohZ6w6Z8hk-9">
          <mxGeometry relative="1" as="geometry" />
        </mxCell>
        <mxCell id="kY_FVC5AN6ohZ6w6Z8hk-7" value="void themSinhVien(){&#xa;    if (soLuongSinhVien &lt; 100){&#xa;        struct SinhVien sv;&#xa;        nhapThongTin(&amp;sv);&#xa;        danhSachSinhVien[soLuongSinhVien++] = sv;&#xa;        printf(&quot;Da them sinh vien thanh cong.\n&quot;);&#xa;    } else{&#xa;        printf(&quot;Danh sach da day, khong the them sinh vien.\n&quot;);&#xa;    }&#xa;}" style="shape=parallelogram;perimeter=parallelogramPerimeter;whiteSpace=wrap;html=1;fixedSize=1;" vertex="1" parent="1">
          <mxGeometry x="195" y="500" width="360" height="210" as="geometry" />
        </mxCell>
        <mxCell id="kY_FVC5AN6ohZ6w6Z8hk-12" value="" style="edgeStyle=orthogonalEdgeStyle;rounded=0;orthogonalLoop=1;jettySize=auto;html=1;" edge="1" parent="1" source="kY_FVC5AN6ohZ6w6Z8hk-9" target="kY_FVC5AN6ohZ6w6Z8hk-11">
          <mxGeometry relative="1" as="geometry" />
        </mxCell>
        <mxCell id="kY_FVC5AN6ohZ6w6Z8hk-9" value="void inThongTinSinhVien(){&#xa;    printf(&quot;\nDanh sach sinh vien:\n&quot;);&#xa;    printf(&quot;%s%-20s%-5s%-15s%s\n&quot;,&quot;STT|&quot;, &quot;Ho va Ten|&quot;, &quot;|Tuoi|&quot;, &quot;|So Dien Thoai|&quot;, &quot;|Email|&quot;);&#xa;    for (int i = 0; i &lt; soLuongSinhVien; i++) {&#xa;        printf(&quot;%d   %-21s%-5d%-15s%s\n&quot;,i+1, danhSachSinhVien[i].hoTen, danhSachSinhVien[i].tuoi,&#xa;               danhSachSinhVien[i].soDienThoai, danhSachSinhVien[i].email);&#xa;    }&#xa;}" style="shape=parallelogram;perimeter=parallelogramPerimeter;whiteSpace=wrap;html=1;fixedSize=1;" vertex="1" parent="1">
          <mxGeometry x="190" y="760" width="370" height="170" as="geometry" />
        </mxCell>
        <mxCell id="kY_FVC5AN6ohZ6w6Z8hk-14" value="" style="edgeStyle=orthogonalEdgeStyle;rounded=0;orthogonalLoop=1;jettySize=auto;html=1;" edge="1" parent="1" source="kY_FVC5AN6ohZ6w6Z8hk-11" target="kY_FVC5AN6ohZ6w6Z8hk-13">
          <mxGeometry relative="1" as="geometry" />
        </mxCell>
        <mxCell id="kY_FVC5AN6ohZ6w6Z8hk-11" value="start" style="ellipse;whiteSpace=wrap;html=1;" vertex="1" parent="1">
          <mxGeometry x="290" y="980" width="170" height="155" as="geometry" />
        </mxCell>
        <mxCell id="kY_FVC5AN6ohZ6w6Z8hk-16" value="case 1&amp;nbsp;" style="edgeStyle=orthogonalEdgeStyle;rounded=0;orthogonalLoop=1;jettySize=auto;html=1;" edge="1" parent="1" source="kY_FVC5AN6ohZ6w6Z8hk-13" target="kY_FVC5AN6ohZ6w6Z8hk-15">
          <mxGeometry relative="1" as="geometry" />
        </mxCell>
        <mxCell id="kY_FVC5AN6ohZ6w6Z8hk-18" value="case 2" style="edgeStyle=orthogonalEdgeStyle;rounded=0;orthogonalLoop=1;jettySize=auto;html=1;" edge="1" parent="1" source="kY_FVC5AN6ohZ6w6Z8hk-13" target="kY_FVC5AN6ohZ6w6Z8hk-17">
          <mxGeometry relative="1" as="geometry" />
        </mxCell>
        <mxCell id="kY_FVC5AN6ohZ6w6Z8hk-20" value="" style="edgeStyle=orthogonalEdgeStyle;rounded=0;orthogonalLoop=1;jettySize=auto;html=1;" edge="1" parent="1" source="kY_FVC5AN6ohZ6w6Z8hk-13" target="kY_FVC5AN6ohZ6w6Z8hk-19">
          <mxGeometry relative="1" as="geometry" />
        </mxCell>
        <mxCell id="kY_FVC5AN6ohZ6w6Z8hk-13" value="int choice;&#xa;    do{&#xa;        printf(&quot;\nMenu:\n&quot;);&#xa;        printf(&quot;1. Them sinh vien\n&quot;);&#xa;        printf(&quot;2. In danh sach sinh vien\n&quot;);&#xa;        printf(&quot;0. Thoat\n&quot;);&#xa;        printf(&quot;Chon chuc nang: &quot;);&#xa;        scanf(&quot;%d&quot;, &amp;choice);&#xa;        switch (choice){" style="whiteSpace=wrap;html=1;" vertex="1" parent="1">
          <mxGeometry x="280" y="1180" width="190" height="150" as="geometry" />
        </mxCell>
        <mxCell id="kY_FVC5AN6ohZ6w6Z8hk-15" value="themSinhVien();&#xa;                break;" style="whiteSpace=wrap;html=1;" vertex="1" parent="1">
          <mxGeometry x="50" y="1400" width="120" height="60" as="geometry" />
        </mxCell>
        <mxCell id="kY_FVC5AN6ohZ6w6Z8hk-17" value="inThongTinSinhVien();&#xa;                break;" style="whiteSpace=wrap;html=1;" vertex="1" parent="1">
          <mxGeometry x="590" y="1390" width="120" height="60" as="geometry" />
        </mxCell>
        <mxCell id="kY_FVC5AN6ohZ6w6Z8hk-22" value="true" style="edgeStyle=orthogonalEdgeStyle;rounded=0;orthogonalLoop=1;jettySize=auto;html=1;" edge="1" parent="1" source="kY_FVC5AN6ohZ6w6Z8hk-19" target="kY_FVC5AN6ohZ6w6Z8hk-21">
          <mxGeometry relative="1" as="geometry" />
        </mxCell>
        <mxCell id="kY_FVC5AN6ohZ6w6Z8hk-23" value="flase" style="edgeStyle=orthogonalEdgeStyle;rounded=0;orthogonalLoop=1;jettySize=auto;html=1;exitX=1;exitY=0.5;exitDx=0;exitDy=0;entryX=0.5;entryY=0;entryDx=0;entryDy=0;" edge="1" parent="1" source="kY_FVC5AN6ohZ6w6Z8hk-19" target="kY_FVC5AN6ohZ6w6Z8hk-13">
          <mxGeometry relative="1" as="geometry">
            <Array as="points">
              <mxPoint x="960" y="1518" />
              <mxPoint x="960" y="1160" />
              <mxPoint x="375" y="1160" />
            </Array>
          </mxGeometry>
        </mxCell>
        <mxCell id="kY_FVC5AN6ohZ6w6Z8hk-19" value="printf(&quot;Ket thuc chuong trinh.\n&quot;);&#xa;                break;&#xa;            default:&#xa;                printf(&quot;Lua chon khong hop le. Vui long chon lai.\n&quot;);" style="rounded=1;whiteSpace=wrap;html=1;" vertex="1" parent="1">
          <mxGeometry x="315" y="1455" width="120" height="125" as="geometry" />
        </mxCell>
        <mxCell id="kY_FVC5AN6ohZ6w6Z8hk-21" value="end" style="ellipse;whiteSpace=wrap;html=1;rounded=1;" vertex="1" parent="1">
          <mxGeometry x="335" y="1682.5" width="80" height="80" as="geometry" />
        </mxCell>
      </root>
    </mxGraphModel>
  </diagram>
</mxfile>
